P2
# 8-bit pgm gray
100 100
255
166 184 150  73  64  45 129 156 198 226 196  94 107 168 106  51  59  60 124 170 194 209 131 211
223 111  71 118  74 125 161 155 184 210 223 159  96  95 137 135 182 210 185 184 140  36   0 130
198 191 220 191 180 225 196 193 206 222 210 195 218 158 114 204 147  87   0  44 101 102 163 158
193 169 106 130  95  26  95 184 223 217 206 223 218 172 199 236 180 179 180 136 175 143 153 180
216 213 205 125
153 185 159   0  27  95 128 193 225 194 139 118  97 105  48  36   0  79 199 214 198 183 127 169
165  79  84  72  70  76 155 189 210 232 193  63  67 115 184 194 164 194 153 200 133   0  60 132
182 174 227 226 154 219 216 153 192 193 201 171 211 185 109  97 130  73  44  66  74  54 126 189
105 107 192  94  35  76 117 208 213 216 229 197 204 192 177 150 160 204 145 115 133 168 140 190
181 145 202 209
188 139 102 107 117 139 116 164 195 121 178 175  58   0  71  72 106 126 179 230 222 175 150 120
135 117  60  34  65 167 228 217 165 176 141  82 147 184 181 192 200 151 151 196 126  29  75 176
211 215 198 173 189 210 228 183 157 192 193 179 205 210 158   0 100  95 115 125 102  49  13 122
111 128 141  39 133  71 138 200 165 172 193 179 224 185  96 169 202 148 158 156 181 158 168 195
155 140  98 189
193 131 113 139 103  90 114  58  95 133 204 148   0  34  86  66 156 190 158 196 204 179 152 135
 95  97   0  52 128 200 200 169 169 157 118 114 171 225 211 182 213 201 146 145 147 113  44 179
204 195 160 183 190 164 192 198 136 140 154 132 163 206 134  66  83 110 111 105 131  94  55   0
 88  88  44 105 141 140 132 164 142 139 118 194 181 100  92 138 127 124 201 124 141 135 161 147
129 194 165 145
114 151 175 154 123  49 125 126   0 115 123  99  79   0  15 115 154 213 213 176 156 159 196 168
119  56  65  77 140 162 157 163 170 128 120 203 202 199 155 165 210 222 196 184 174 139 127 174
152  91 145 190 126 129 152 183 143  88  68  87 136 147 112 127 114 120 115 115  95 119  62  95
 55   3  91 101  94 171 167 120 120 151 115 161 133  72 138 183 110 121 129  58 135 182 186 105
128 212 209 145
141 153 176 217 198 127  97 131  50  80  88  62  64   0  55 157 211 200 211 214 129 130 242 206
137 136 168 161 119 134 227 167 164 144 227 232 215 163 155 187 173 175 180 149 169 169 166 202
136 137 161  66  75 174 140  95 107 105 131 149 119  96  86 163 172 128 169 183 102  55  66 122
 19  94 150 100  45 126 165 180 214 181 103 107  81  89 173 198 144 169 111   0 120 221 234 152
136 167 193 194
206 190 137 176 208 190 112  71  72  65  79  42  46   0  70 154 178 201 201 217 103 155 221 176
101 197 216 175 121 127 167 180 228 179 232 209 190 211 180 194 143 114 175 172 195 177 165 206
147 188 184  53  70 157 151  73 104 126 118 186 215 164 185 197 164 153 204 140  75  71  65 105
  0 118 195 167 111 118  98 131 195 173 104 101 113 143 158 158 111 117 126  40 100 189 223 164
111  50 113 159
 55  27  76 158 174 170 145  80  87  52  63  77  99  22  49 142 179 199 220 179 154 176 166 169
 83  75 135 134  92 108  91  93 106 116 173 198 182 167 135 172 173 181 174 222 213 129 167 193
133 124 128  96 144  77  95 141 130 143 107 128 216 230 215 211 149 115 132  81  18  91 104 107
  0 108 193 157 189 209 118 112 142 160  92 110 161 166 183 160 133   1  79 144  84 130 189 117
 56  55  42  80
 74  85 124 163 116 130 129  82  62  20  71 102  81  64  60 119 204 245 212 153 172 179 193 174
111   0   0  10  81  65  41  57  86  73 104 188 127 108  95 128 160 209 196 226 181 155 191 197
160 120 154 181 141  56  33  72  56  98 100  74 165 206 172 175 122  77 120  84   0 100 119 105
127  87 153 147 133 170 177 170 172 151 173 173 132 112 168 154 102  47  71 146  99  90 110 181
206 121  62  24
134 142 137 114  91 112  88  28 104 131 123  69  45  89  85  88 128 205 200 215 180 202 199 132
 75  52  70  26  45 105  98  92  75 113  77  86 144 162  53  66 169 200 193 198 165 156 161 148
167 162 190 199 102  70  19  44 116  98 152 119 104 117  59  61  50  74 110  70 120 142 141 145
189 127 122 210 168 164 176 168 181 186 211 183 106 119 144 150  31  80 109  63 101 138  73 189
225 187  92 106
204 152  57  94 126 106  78  64 208 167 112  69  64 112  77  56 118 170 201 203 195 192 184 111
125 140 108 108  39 125 159 112  62 191 132   0 109  96  74 102 179 208 176 176 137 108 152 160
178 217 178 130  96  98 102  30 103 149 186 172 124  72  97 100  93 148 172 200 173  88 139 209
188 147  94 185 229 169 122 171 225 208 139 112 117 140 150 122  31  90 105   0 109 174  92 121
183 182 185 182
181 118  26  93 132  88  77  95 237 193 122  92  44  90  96  74 136 134 200 192 212 180 124 145
196 203 118 160 111  94 168  72  77 195 184  91  58 176 171 106 170 215 202 182  80  77 114 167
165 201 208 164  93 146 156 110 169 197 203 176 142 142 136 168 184 174 173 196 171 100 135 205
188 186 194  83 150 181 191 109 146 133  86 113 133 153 117  89 106  64  85  31  57 170 139 110
130 138 193 188
186 153  89  18  97  88 131 150 217 202 161 137  83   0  99 118 117 159 205 209 212 218 176 204
200 175 160 172 120  58 122  62  78 154 155 141  88 152 120  89 145 178 209 162  24  82 165 181
137 163 219 161  79 199 214 132 176 197 206 199 179 196 188 214 185 149 149 175 197 150 135 174
163 182 218 179 123 181 206 144 139 157 144 180 195 218 114  49  87  78 121 124  85 110 166 140
119 129 205 180
194 144  36  14 117 139 145 125 162 168 116 118  92  50  45  89 195 176 168 201 170 172 168 133
140 189 210 194 143  94  77  64  79  93   0  32  84   0   0  55  89 133 113  21  54 156 211 202
141 131 178  85 152 213 222 193 188 155 228 222 204 220 190 164 177 171 176 211 211 144 149 165
154 172 201 212 186 162 181 216 218 216 165 217 205 206 164  56  31  81  84 129 143  63 104 115
143 163 215 213
189 113   0  69 124 196 127  33  87  65  66 103  47  50   0  92 225 198 183 172 188 179 134 160
159 178 201 208 192 114  73 112  76  71 104  53  24  66  60  56  98  61  45  76 121 143 140 151
152 122 143 109 197 213 216 210 185 130 170 184 158 172 126 103 168 213 212 202 195 113 165 202
139 150 189 216 203 204 196 204 231 205 173 214 167 179 202 123  44  38  66  86  78  82   0   0
158 185 221 202
173 126   0 112 132 178  81  44   0  79 113  68   0  55 102 162 203 128 152 180 213 174 130 156
156 171 151 162 161  56 151 188  90 122 164 124   0  67  85  78  56  62  70 116 156 137 114 107
134 148 137 187 216 189 201 209 162 125  99 139 175 155 171 106  75 157 198 189 228 163 131 200
193 185 147 214 225 220 204 218 233 194 176 185 216 183 208 168  77  31  74 131 144 101   7   0
110 158 190 164
175 136  76 124  82 129  86  85  55  75 133 100   3 149 196 163 150 160 188 191 161 131 162 156
149  99 118 130 131  91 211 218 214 186 179 168 112   0   0  64  72 102 139 111 134 160 170 115
104 151 161 191 193 175 193 194 174 171 220 186 171 149 193 226 134  95 205 162 222 187 142 153
200 213 201 215 215 198 205 208 195 208 199 217 215 185 188 166 136  82  65 157 151  89  56  86
 63  91 101 155
 75  58  85  82   0 134 162  59 106  50  75  76  85 148 145 149 150 183 204 217 186 216 205 176
224 219 191 176 191 155 154 181 215 225 195 157 128 106 100  60 112  99  92 184 193 145 174 145
141 137  98 155 193 198 217 162 146 185 169 189 152 123 140 230 194  98 152 147 152 193 159 131
213 199 223 198 181 201 219 194 190 216 228 231 183 200 197 182 148 121   5  98 111  82  97  72
 55  58  90 101
  0  26   0  13  65 138 130  17 102  74   0 109 125 102 158 193 144 169 218 229 221 172 151 200
234 222 199 215 218 161 128 151 185 198 162 159 129 171 144 117  89 135 126 149 142 116 178 146
108 118 135 139 166 185 200 122 169 231 186 149 152 100 116 206 192 197 169 112  97 189 141  92
192 176 179 170 171 222 223 205 219 207 193 199 178 169 193 228 163 101  80  88 100  78 118 106
 86  37  49   0
156 146 112 102 110  97  52  52  64  85  87 120  88 121 223 205 134 197 214 192 166 102  89 126
156 172 182 131 122 211 217 164 120  71  56 118 151 155 186 203 201 179 186  96  69 191 173  78
  0 118 145 152 122 187 202 118 166 205 205 208 187  95  92 176 204 227 194 185 128  88  86  79
150 139 118 204 208 189 136 196 215 208 190 187 185 160 192 206 178 107  80 134 153 149 137 141
133 109  77 130
133 136 129 109  94  27   3  70  96 158 162  66  89 173 194 130  94 163 181 167 153 116 128  62
115 174 106 110 143 183 222 193 135  84  99 131 181 194 222 189 225 208 155 121 131 118 124  99
 58  43  76  93 116 177 171 129 199 190 187 159 188 165  83  99 193 218 188 176 182 162  72   0
170 164 118 179 177  84 122 161 198 170 174 175 127 133 159 176 174 106  98 113 135 136 101 100
 79  98  95 128
128 121  91  55  14   0  60 171 191 169 158  89 105 174 124 136  93 125 127 113 151 104 168 185
141 146 168 198 176 126 150 206 124  96  82 111 187 222 232 192 186 202 173 199 198  54  94 128
106  67  54  38  37  37  70 189 224 217 165 157 174 228 174  76  93 178 204 150 202 224 148   0
129 167 110 117 112 141 194 183 212 194 198 226 152 126 126 176 176 163 163  80  67 107 111 139
122 131 162 119
109  55   0  30  58  99 170 202 218 166 150  92 101 118 145 194 142  31 170 185 132 178 175 205
190 188 208 155 143 134 124 136  48  59 176 122 118 189 195 185 193 157 207 219 172 162 154  93
141 134 103  94  68  37  40 171 194 197 190 196 183 219 203 155  50 155 206 168 192 218 182  57
 85 156 138   0  76 154 194 194 159 200 201 192 186 179 148 200 192 194 209 170 166 171 124 137
156 133 139 123
 83  67  81 121 134 130 179 197 224 207 176  86 110  93 120 203 212 145 164 221 195 188 162 192
209 210 192 129 195 145  81   0   0 132 196 156 123 177 218 199 196 180 172 169 129 212 184 137
170 173 144  95   0  86  94  89 182 199 181 179 191 207 181 184  81 141 207 167 159 172 191 153
 85 112 160  66  57 149 126 207 216 208 199 191 198 191 117 165 211 205 187 191 194 223 197 184
167 122 111 145
151 155 158 150 119 185 184 188 229 244 223 148 137 120  85 109 174 189 185 180 160 168 169 169
191 172 229 173 186 203 111  87 172 217 188 120 125 205 203 158 179 205 180 134 133 156 150 188
211 177 180  98  17  61 102  19 136 220 203 213 202 208 189 204 127  95 162 170 200 205 166 204
164 110 146  72  54 159 143 168 195 193 212 201 207 201 144 147 217 207 204 191 216 231 239 193
161 142 148 161
120 111 114  72 133 173 200 179 197 202 174 155 175 188 181 171 165 150 184 116 162 201 215 206
160 137 194 223 160 158 203 183 190 181 176 109 153 175 108 127 191 185 163 188 176  50 128 163
154 139 132 111 110  57  64  84  30  89 169 189 201 223 211 212 178 128 115 121 192 227 157 198
191 127  74 113 101 103 136 174 181 175 205 224 209 211 198 170 196 229 211 200 195 195 176 160
187 170 110 117
 35 103  85 146 165 155 151 183 189 153 162 163 219 203 169 178 128 118 148 160 206 194 184 221
191 126 157 202 193 143 164 106  66 102 138 175 154 149 150 158 145 174 170 203 159  68  70 182
216 146  69 110 136  70  65 124  72  43  77 160 220 223 237 193 188 168 105 141 159 207 205 151
168 136  99 136 177 118  46 132 203 178 188 206 194 188 178 156 215 214 219 186 153 124  99  99
108 116  98  48
107  87 154 219 206 126 179 221 179 183 189 207 228 187 160 139 126 173 161 208 175 191 186 198
221 155 161 167 156 146  63  72 100 106  99 192 236 197 163 186 186 170 173 165 139 107  52 168
209 120 103 159 140  75  64 137 133 101 108 109 169 200 189 170 132 101 152 178 168 203 204 155
116 123 151 148 178 159  82 109 170 189 158 175 198 184 167 206 201 186 191 135 137 146 132  67
  0   0  10 100
167 136 147 213 228 208 154 195 173 207 196 201 209 181 153 157 184 197 150 185 187 178 200 142
154 126 128 167 120 104 135 157 191 178 133 137 228 226 151 208 217 209 211 202 139  95 130 154
153  96 163 164 158 154  65  77  97 120 174 128  93 175 205 194 124   0 153 228 199 168 150 171
177 161 183 185 138 120 127 191 204 189 178 204 225 189 167 171 157 226 222 170 196 153 130 111
135 170 125 162
197 228 168 161 235 250 170 163 191 174 205 189 175 217 183 166 135 183 131 141 202 188 133  80
118 101  81  98 109  60 155 212 197 138 202 204 161 212 181 158 198 214 215 182  99 159 180 140
158 180 192 145 115 199 175 118  56  97 180 174 105 134 194 188 129  87 156 212 180 150 161 194
198 215 220 157 129  26 159 228 206 171 166 194 178  84  88  50  99 177 186 220 184 162 193 124
193 235 204 184
211 235 226 155 181 199 163 128 184 148 210 201 176 204 236 228 159 148 186 159 154 178 129 126
147 141  44  46 152 146 123 194 164 124 176 213 178 160 182 150 103 186 207 147 181 180 175 144
139 160 181 203 128 138 172 155  65  12  92 134 182 159 174 197 186  94 116 134 138 149 184 149
145 189 220 159  76  81 199 209 202 178  86 151 115 137 181 146  97 115 171 208 194 172 168 149
167 184 210 195
212 198 218 186 181 193 132  98 188 196 142 199 200 175 207 206 180 166 188 162 110 183 179 123
105 147 166 122 103 181 128 149 158 170 160 146 150 108  72  99  76  90 139 196 231 205 232 220
181 216 184 200 210 158 165 150  99  43   0  98 165 201 198 199 150 104  85 134 147 108  99 109
152 155 144 124 102 114 217 169 201 148  40  99  74 150 176 171 162  59 127 184 224 204 122 150
181 163 196 203
204 198 235 214 204 134  86 157 187 204 199 213 187 135 166 174 157 167  91  83 184 205 126  80
145 191 220 196  99 172 159 173 149 161 161 121  67  50  21  89 109  48  46 151 169 193 238 253
238 219 193 203 171 174 206 177 121  33  94  92  83 169 214 170 151 160  78 114 116  99 101 139
168 159 145 139 110 113 203 154 113 129 115  35 127 165 174 121 132  90  84 138 178 201 138 123
187 147 195 215
191 184 222 207 189  78 132 181 204 227 201 160 186 191 189 164 165  77  33 187 226 162 113 127
199 196 201 214 172 112 138 186 182  35   0   0   0  32  78 144 142 114  66  86 139 150 184 222
218 195 225 207 185 180 190 223 142   0 109 114 124 102 108 177 184 143 102  41 134 135 179 193
201 186 189 164  99 105 118 111 142 176  78  73 175 189 146 144  91 107  66  66 163 170 136 205
195 122 144 179
170 185 187 173 102 100 156 202 198 184 155 202 232 171 143 111 134  88  98 191 160 116 171 168
214 161 213 193 211 163  78 187 155  68  78  24  49  62  45  88  96  85  99  38  92 143 135 168
185 180 192 212 186 168 176 225 159 108  33  91 149 172 107 132 150 110  80  80 178 137 169 231
228 194 191 162 128 108 128 121 106  60   0 126 159 153 158 142 109 126 135  90  57 164 195 191
174 164 179 164
209 186 207 175  57 158 213 207 172 179 149 185 186 122  94 151 182 113  77 126 169 174 178 206
209 148 125 151 178 153 108 194 104 133 121 139 148  75   0   0   0   0  81  72   0  39 100 126
128 153 190 222 210 205 216 163 114 180 122  65 131 203 171 139 126  61   7 132 146 172 197 179
199 215 171 114 113 109 133  73   0   0  66 144 143 181 188 144 157 104 116 128  56  98 164 166
136 123 156 215
169 138 173 156 113 160 235 219 170 188 180 181 197 147 117 187 192 131  66 133 213 174 164 175
182 187 123 107 121  81 164 177  91  99 122 156 126  70  87  67  49  44  91 114  90  83  62  62
 98 116 167 199 192 198 161  90 166 191 166 143 138 151 172 123  59  48  45 161 178 219 187 154
197 220 191  97  49  83  70 102 111 109 156 198 188 159 127 134 187 160  97 110 105  73 107 211
211 163 149 175
191 182 145 177 191 127 168 188 146 172 220 193 177 153 142 186 164 147 117  89  84 147 172 130
186 168 127 168 177 172 177 135  60 103 116 152 129 180 145  64  64  22  97 114 108  84  61  53
 60 114 137 228 191 164 141  90  92  81 162 211 197 200 170 154 173  96 159 216 198 192 173 182
199 172 181 142  22   0 116 170 190 198 175 184 147 159  96  81  95 113 186 191  96  93  64 122
172 187 194 204
209 221 216 206 227 179 118 191 192 172 211 217 173 155 152 200 167  76  71 103  26 142 185 199
202 148 118 175 196 198 176 131 151 106 112 196 171 201 190 114   0  21 117 143 147 172 143  74
 32  77 137 208 161 112 124  80 135 155 174 199 214 204 181 202 180 143 185 183 216 192 158 148
214 236 157 106 101  34  45 153 154 111 116 132 181 187 121  94  61  60 138 199 189 133  69  81
 35 178 188 187
172 196 205 215 196 165 136 183 218 193 194 172 154 182 199 186 211 189 106  64  39  25  85 130
159 187 141  59 158 201 204 216 196 102  90 153 143 115 163 191 110   0  91 147 173 235 206 108
 51  23 107 146 103 101 121 142 181 174 102 108 152 128 162 189 125 112 139 124 188 215 136  84
203 204 108 113 168 192  99  43  71   0  82 150 180 135  43  38  94 146 153 105 195 178 121 130
147 110 172 194
155 146 142 176 184 209 207 142 165 189 154 134 174 209 190 160 178 208 177  96   0  26  63 123
155 204 187 132  86 184 191 151 137  83 122 137 109 104  83 125 144 110  66  68 142 191 194 159
 95  69  68 132 115 110 174 188 165 134   5   0  71  84  86 186 201 124 139 122 101 150 118  91
159 169 125 188 219 214 187  91 103 148 134 137 129  51   0 112 142 138 185 125 121 127 169 167
178  93 107 151
162 168  61  76 165 205 179  89  53 129 193 168 186 186 187 216 170 130 163 216 159  77 114 180
190 164 211 210 129 138 142 131 157  97  82 181 206 123 112 120 117 140 119  78 110 129 165 128
119 146 122 133 130 164 190 114  90  78  97  93 105 146 140 147 199 203 161 167 154   0 105 130
195 221 191 183 218 195 187 183 193 213 150  75  92  53  54 144 157  89 147 170  92 106 184 211
179 139  64  83
182 155 161 130  97 158 165 146 159 129 122 118 176 134 171 202 149 195 160 162 202 119  70 131
207 197 161 160 155  55  90 128 157 163 134 123 138 162  97  73  80 155 172 121 167 179 183 102
105 141 127 147 151 204 168 107 160 126 151 147   0 100 137 136 180 175 103 173 175  83  79 155
211 225 193 127 179 208 205 192 184 179  64  47   0  75 106 171 217 171 101 121  71  67 111 172
214 206 149 158
214 193 192 160  78 146 179 159 209 173 138 155 180 153  88 173 162 179 207 173 181 162  77  72
131 149 114 136 136 104 130 124  71 110 186 157 124 184 164 127 162 184 183 179 197 209 191 119
110 112 158 161 162 157 144 150 172 137 175 204 117  55 112 135 144 128 129 154 166 159   0 126
211 174 187 144 123 197 223 206 145 115  59  76  91  59  96 191 220 212 154 144 166 164 124 137
173 198 207 215
211 182 171 130  84  80 153 142 182 177 173 195 219 215 155 117 145 163 202 187 144 138  73   0
 27   0  45 124 192 202 185 166 109  44 174 182 179 178 189 173 165 210 207 207 178 167 165 158
101  93 160 111  71 120 178 161 165 142 170 231 193 118 103 129  74  64 140 149 111 102  26 134
212 172 196 204 126 152 227 204 136  29   0 152 178 115 107 153 147 172 222 219 233 207 134 218
179 181 202 187
208 165 176 212 116 123  79  90 138 142 170 177 202 223 154  99 158 185 156 121 100  70 106  66
  0  22  20  14 119 198 215 162 116  64 120 187 197 211 200 165 160 224 182 146 180 201 158 155
127 124 116  70  78 100 168 168 150 218 149 191 176 132 187 198 134  44 128 138  76   0  82 167
225 208 165 227 216 128 150 135  61  16 159 230 198 118 166 125  73 148 177 181 195 145 182 216
217 192 176 151
200 136 111 150 105 194 162  64 122 157 172 190 214 184  88 152 184 115 115 135  81 109 128 126
 49   0   0  42   0  72 166 191 140  68 147 176 207 201 164 175 187 218 139 162 183 210 197 104
139 126 101 128 141 116 145 161 179 246 224 166 165 209 206 232 173 123 155 126  82  51  27 123
177 203 166 203 232 213 104   0  38 124 168 212 206  76 145 167 120  89 124 199 142 131 192 193
213 200 122 174
173 177 144  58 131 190 220 145  76 141 159 152 192  81 125 177 124  69 103 120 156 177 153  30
 32  85   0  43 121  74  44 169 122 135 170 161 162 138 179 162 159 188 206 203 202 220 210 130
 93  47 185 197 173 170 204 231 225 199 202 193 183 218 208 228 156 103 113  91  86  64  68  43
149 192 191 195 194 148 140 130 112 156 153 137 158 148  83 201 169  36 138 196 127 146 127 163
207 165 160 188
233 201 165 157 149 151 215 149  90 149 203 142  80  66 183 161  89  92 102 170 202 155  98  51
125 112  85   2  82  90  58  72  60 172 200 192 215 127 108 155 112 128 203 225 225 211 199 160
158 169 140 174 176 139 204 231 194 192 193 206 172 101 177 212  97  42 127  62  24 108 139 116
152 181 184 179 161 141 170 171 117 194 206 185 185 201 145 158 153 106 118 130 114 194 184 135
177 163 196 219
206 172 145 223 174 111 213 160  95 153 213 194 116 158 192 192 124  88 109 166 204 159 137 186
210 141 102  98  38  24  64   0  95 188 156 171 186 144 129 117 167 174 107 166 183 180 107 114
185 201 156 153 220 219 212 211 208 200 217 215 211 150  97 192 120  59 117  44 140 189 138 140
187 188 123 153 112 130 135 146 124 187 219 200 208 211 203 130 140 167 145 118 133 191 189 164
139 163 211 158
204 206 165 201 147 157 195 132 128 212 210 191 196 206 213 198 141  90 135 113 148 192 176 174
204 184 115 175  96  22  24   1  65 183 136  82 195 177 124  97 158 192 186 122 115 150 197 168
113 118 163 159 153 198 186 208 208 144 157 148 198 170 122 129 130  70   0  72 149 160 149 144
222 180 124 198 104  82 127 177 184 119 136 189 173 196 215 215 195 237 153  86 147 188 180 163
161 212 201 188
216 222 194 184 110 194 176 129 164 205 215 236 234 210 210 185 130  78 117 153 117 147 159 193
192 142 129 181 106  62  57  53   8 116 128  85 168 145  87 135 154 210 207 170 123 148 198 228
105  50 148 161 173 185 126 204 160 181 200 162 141 168 156  32 145  92   0  55 120 147 143 187
227 212 157 195 101 141 128 138 182 163 149 121 141 172 166 212 216 197 167  71  91 137 121 135
183 215 171 184
205 193 222 166 108 165 124  68 142 205 177 183 203 203 205 171 173 122  91 127 148  33 155 251
187  97 115 142 139  91  54 103  78  35  90 118 101 136 171 152 146 203 170 181 208 188 145 185
 96  36 155 212 206 201 160 172 178 200 189 220 162 118 114 132 160  96   0   0 105 204 184 182
214 206 184 192 160 164 136  92 161 195 184 171 158 189 160 148 194 196 198 191  76  62  71  73
162 164 153 190
227 228 205 129 107 178 149  56  93 134 149 136 201 167 183 177 201 162 184 102 114 112  97 139
101  70 124 195 131  84  84  83 120  57  55 122  70 173 230 179 124 159 206 224 217 162 100  54
100  86 126 204 202 195 222 183 174 179 157 211 160   0 111 183 143  49  30   0  43 235 226 204
196 181 216 204 177 214 186 150 179 220 210 201 216 187 144 145 174 233 213 208 164  68  80  91
155 225 209 224
225 202 142 120 152 194 156 168 139  97  87 115 168 176 159 203 118 156 203  96 129 174 113  56
 84 150 189 148  80 140 179  92  57  77  56  55  76 177 243 176 167 192 153 174 127   0   0  80
113 131 160 207 210 190 235 215 167 147 179 176 100 112 107 138  64   0  32  63  91 183 204 216
184 188 194 205 178 185 206 176 182 224 211 192 192 171 151 177 147 184 215 218 176 132 176 170
163 170 189 168
178 171 170 151 177 210 193 164 191 196 121 109 185 220 179 154 105 133 100  45 184 200 163 165
157 190 147 143 119 193 236 159   0  46  46  20 124 161 198 145 191 255 196 119  55 100  88  88
112 176 182 218 217 188 174 195 164 137 212 149 165 185  67  90  35  29 102 154 163 147 147 156
185 180 172 169 176 146 167 172 163 139  75 163 213 163  90 114 158 196 178 194 171 181 187 193
212 128 196 183
193 219 233 181 179 199 217 210 171 149 191 128 136 174 171 150 108  78  93 172 187 166 195 202
165 181 154 188 151 152 193 189 116   0  44  37 100 187 180 159 142 180 139 102  92 116  97 156
186 179 143 174 196 209 169 167 162 163 150 142 198 161  90  69   0  81 142 176 196 214 125  84
200 193 176 191 210 207 160 137 159 130 141  98 146 144 148  93  93 185 194  74 191 225 212 208
180 124 151 228
207 187 169 164 200 196 162 195 163 161 174 177 163 165 159  95  83 105 168 221 200 172 217 157
149 191 185 161 125  95  98 164 148   0  54 129  50 139 206 192 150  93 127 147 103  99 180 211
184 107 114 187 182 177 177 215 172  94  41 153 185 176 157  56   0 123 134 133 183 217 124  97
193 225 203 146 175 234 219 128 153 180 186 123  20 119 174 130  32  92 156 155 169 191 210 166
128 128  52 160
148 135 140 102 141 188 158 114 105 129 176 227 216 173 121  86  85 124 154 156 183 185 182 133
200 192 162 201 195 119   0 102 130  41  89 165 102   0 107 126  71  92 151 135 118 157 198 150
 55  62 126 148 146 177 193 154 125 135 128  98 152 227 203  47  83 101 122 163 128 112 116 175
172 177 147 185 190 163 208 171 142 160 179 129  62  64  59 142 155 100   0 152 188 139 117 160
178 119  52  56
118 114 163 145  65 120 170 165 173 139 215 232 181  91  86 130 144 136 153 158 102 134 104 156
141 181 217 232 220  95   0  94 151  75 125 143 161 114  98 125 160 151 119 126 126 172 186 100
 75 153 143  47 111 198 149 114 128 173 166 144 116 125 123  66 127 145  62 200 187   0 139 227
218 204 173 208 202 142 175 196 184 166 111 104 145 140  72  73 141 152  87  99 199 196  85 136
153 182 174  85
 46  65 131 193 145 137 144 190 197 187 218 168  78 140 140 148 166 114 154 186 144 109  92 132
150 178 212 205 168  52  53  71 180 149 123 140 150 186 166 148 198 214 149  65 115 147 132 106
146 196 150  55 144 185 171 168 165 154 163 182 139  72  16   0 142 156   0 170 190 101  75 163
229 217 198 206 168 206 198 200 206 143 100 154 159 191 170  50  80  88 108 151 145 167  95 104
149 219 230 169
176 128  74 156 210 171 133 176 176 188 167 107 186 227 203  97 153 145 134 123 165 125 139 117
150 132 137 192 135   0 136 117 178 195 123 158 126 176 171 117  90  71  39 115 169 160 134  95
170 195 151 122 183 214 176 103 146 161 199 229 185 105  68  72  67 103 154 124 136 167 104  89
147 134 181 199 192 210 223 190 182 120 100 194 188 145 134 145 124  71  54 151 171 152 112  71
140 193 192 205
215 187 128 148 198 136 110 195 171 111 137 162 193 168 171 149 119 115 154 153 143 113 160 163
116 105 165 198 118  66 189 174 154 184  95 160 206 178 199 179 113 107 119 176 158 100 110 155
200 168 145 129 162 172 128  83 176 220 208 222 152   0 131 169 151 138 201 186  96 166 147 124
137 177 168 169 215 167 152 138 162 133 106 203 241 217  86 136 209 129  71 129  92 147 193 132
128  89 153 201
216 191 160 183 157 171 102 157 193 112  81 114  90  75 141 162  96  66 125 196 150 124 170  94
 62  14 147 143 168 186 147 137 153 195 126 143 232 238 228 207 166 226 195 124 102 121 136 214
242 157 159 115  16 111 145  81 140 176 157  69  38 160 178 179 221 204 166 202 204 158 181 174
157 215 192 149 174 130 154 215 205 118 162 216 247 185   0 112 186 118  42 108 158 164 129 110
123  78 174 217
217 203 179 165 107 152 132 114 168 145  62  15 133 164 146 138 118   0 170 208 123 101  74  28
  0 155 204 165 203 226 150  97 144 169 134 110 183 181 198 217 126 150 123 160 198 208 194 186
200 192 204 178 137 113 134 148 195 168 119 172 160 221 234 140 155 190 213 230 218 171 172 177
187 219 222 159 114 122 180 236 200 135 180 198 196 134  43 136 131   0  38  99 168 147   0  71
 95 155 201 206
201 209 205 197 175 158 144 141 122  86  36  60 118 136 180 206 150 103 165 121  47  68   0   0
 78 192 176 156 187 235 195  83 130 157  97  61 127 187 186 132  80 109 164 217 240 238 171 168
217 199 176 191 248 200 185 206 177 152 216 221 197 220 201 173 131 164 196 211 200 146 143 181
210 209 195 137 146 169 164 206 207 123 133 175 161 128  91  99  68  86 148 164 179 167 123  34
115 216 218 179
 94 123 161 158 129 163 151 132  92  76   0  77 118 192 224 194 147 188 149   0  44   6  34  77
124 102   0 143 176 185 182 109  63 157 116  41 107 133 133  93  63 170 189 195 224 238 190 207
226 193 175 197 241 230 209 166 104 175 219 216 163 198 193 225 189 147 205 187 176 158 187 166
150 182 203 188 127 183 155 187 213 121 100 180 146 115  79  61  75 188 225 151 202 204 129  48
 73 178 173  84
 67  51  78  73  68 116 145 136  54  85  94   0 118 236 219 175 192 158  94  44  34  65  78 124
126 144 198 184 139 114 155 181  88 137 119  62  79  68  76  44 147 220 191 194 179 187 214 194
205 209 214 252 209 209 195 112 153 174 202 227 196 159 216 217 169 174 217 178 179 222 191 143
113 122 194 175 129 136 160 169 149 149  99 126 138 144  82 102 192 204 206 150 184 187 139  72
 60  61  62 110
209 137 109 123 134 128 137 112  44 113 166  39  76 224 230 186 177 150 167  60 109 144 114 133
109 192 221 203 154 109 127 200 149 110 140 150  88 127 101 149 213 229 210 174 194 181 195 182
194 193 182 241 225 201 170 111 181 154 164 200 203 192 187 208 193 192 160 176 201 197 149 164
116  78 125 156 124 126 131 107 185 209 132 104 104 133 129 159 173 178 159 175 196 204 187 119
 83   0  81 147
219 192 118  50 164 192 171 137 142 110 171  99 101 109 168 133 155 210 188  38 130 144  72  82
139 207 160 158 135 129 131 141 168 126 152 234 211 182 205 187 204 216 208 192 199 200 199 190
186 227 196 174 202 220 194 114 150 206 205 162 188 236 238 224 191 193 124 156 201 205 190 204
178 147 172 187 171 126 126  89 144 201 166 185 191 208 219 229 213 166 157 173 191 181 163 153
125 112 131 217
210 123 115 123 110 161 128 113 144 145 143 144 119  38  74 116 182 174  96 134 115  71  79 179
224 151 166 175 137 164 143 135 153 128 147 223 252 206 165 198 199 218 206 213 175 180 217 206
172 189 229 189 178 192 227 170 116 204 224 179 158 202 217 209 210 179 101 198 235 231 199 185
203 163 196 194 211 177 149 154 138 199 191 206 213 210 205 227 206 181 184 134 191 224 176 157
164 149 105 181
135  77 203 203 107  64  88  96 131 143 156 191 184 141 111 185 179  79 118 146  81  44 146 210
194 173 196 184 155 195 195 183 145 178 171 207 218 206 156 217 201 180 204 197 199 201 198 189
218 186 192 206 196 156 173 218 159 162 206 234 191 179 186 194 244 133 127 213 210 188 137 181
189 159 167 197 214 214 170 155 160 155 184 207 183 210 197 191 195 195 171 149 171 178 172 140
134 125  83 122
 39 105 154 139  97  33   0  64 105 105 177 219 222 200 156 125 114  71 118  83   0 116 178 175
197 204 191 215 215 160 194 204 200 224 204 171 180 207 165 200 221 195 226 166 194 192 163 201
242 198 176 221 199 171 139 214 217 147 159 198 200 192 186 186 185 143 192 169 182 166 148 201
177 142 164 200 214 200 167 146 213 204 127 137 168 179 181 210 216 201 203 206 133  99  99 168
206 119  81  96
 81 137 157 112  70  73  73 113 115  80 124 191 185 169 162 153 119 117  84   0  69 175 178 186
225 183 221 223 199 188 185 208 176 167 194 174 157 150 199 165 190 211 196 113  59 107 165 189
184 178 187 210 190 185 185 156 171 177 145 156 142 189 165 193 200 177 209 159 152 202 150 148
182 139 132 207 196 207 164 131 199 183 129 143 179 160 167 213 199 188 220 169  72  56  91 135
190 177 121  95
117 162 202 135  97 176 187 142 134 148  87  94 168 196 166 182 178 118  68 105 160 177 146 207
218 154 180 184 179 177 175 159 136 169 155 220 135 133 206 172 121 169 124 134 132  94 185 185
153 212 221 213 200 192 187 155 144 159 173 160 107 187 215 194 224 187 196 208 156 199 116 158
211  92 140 221 210 208 206 145 117 188 211 172 121 140 141 152 220 217 196  77 101 151 128  89
127 171 171 123
115 120 150 141 119 189 183 177 192 156  79  81 161 205 194 213 203  90  82 163 203 168 196 176
195 200 172 195 190 204 186 150 153 207 212 196 178 120 132 205 164 161  91 121 165 180 179 221
196 187 210 197 194 189 156 143 187 163 158 162 142 125 146 158 218 215 202 193 162 198 121 108
156 131 152 205 157 170 180 170 149 160 205 212 183 187 138 141 194 189 134  61 162 207 189 169
155 156 106 101
131 110 128  85  78 174 188 191 166 124  83 116 139 189 202 190 206 131 112 104 126 162 200 145
170 217 222 173 147 193 193 171 191 189 192 190 228 180 175 188 158 207 144  74  80 173 197 206
172 192 184 194 182 147 196 182 189 226 208 150 114  47   0  88 173 185 192 159 196 223 190 131
130 207 161  88  71  85 142 228 222 164 159 192 180 194 166 101 210 198 168 192 170 182 191 148
185 146 107 139
221 190 138 113 195 208 152  67   5 119 139 183 137 128 175 184 206 190 148  89 108 155 192 201
128 153 205 174 199 107 180 208 182 177 153 178 156 208 188 186 150 189 211 152  92 117 189 201
195 133  74 125 105  46 132 190 219 243 231 156  82  79  91  43  37  83 125 176 193 193 223 228
168 177 189 172 192 158 143 193 172 113 142 155 142 140 179 147 153 164 179 204 213 213 228 173
147 146 172 210
134 168 142 171 210 183 158 105 188 198 184 198 172 107 142 183 201 204 121  64  95 153 195 227
214 199 166 184 201  95 163 201 173 168 164 124 176 161 198 220 186 159 196 214 154 140 192 205
150  84  95   0  48 133 109  97 133 170 166 141  88  36  80 107  59  82  79 159 181 164 238 224
202 168 154 219 227 227 171 135 134 136 181 189 206 192 184 216 183 133 155 177 192 190 183 179
190 199 191 147
186 128 161 150 104 180 127 151 238 237 216 192 224 167 121 177 215 225 187  74  82 104 190 208
217 229 156 187 182 132 178 170 169 198 204 195 173 158 220 209 211 176 139 190 195 185 143  99
 75 100 103  53  85 130 124  74   0   0  87 137  59 121 115 162  82  87 122 107 163 181 221 193
234 232 160 135 177 191 165 151 107 159 199 185 211 209 205 196 190 146 214 200 196 210 207 183
158 188 137 128
216 208 227 167  91 161 189 184 212 217 201 226 240 195 139 208 240 224 215 120  73  71 141 160
120 112 165 152 109 181 178  89 147 224 224 162  98 167 187 180 169 176 149 144 173 113  91 124
116  47   0   0  44  80 105  87  92  66   0   0 149 204 193 155  47  47 116  77 143 206 191 170
169 215 217 156  84  76 123 111 136 141 181 197 212 203 178 120 112 157 189 195 200 203 205 144
121 140 151 212
222 212 179 175  99 105 177 215 187 195 210 234 204 139 168 242 207 129 130 122 112  70  86 153
192 197 226 202  91 159 203 170 125 183 171 120 190 176 103 154 181 178 167  98 131 131 145  70
 54  40  82 154 117  55 109 160 175 187 163 135 133 145 195 179  52  33  99  73 123 171 189 201
172 171 163 165 152 118  74 125 150 150 216 203 200 210 140 150 202 201 176 195 186 203 134  80
193 175 179 211
182 194 179 150 139 104 128 206 172 203 178 212 164 146 226 204 126 142 162 136 169 156  63 128
222 226 203 147 141 169 199 221 198 176 126 162 174 134 139 140 185 188 135 160 172 131  97  48
 92  72 175 244 191 148  91 136 185 216 230 188  93  76 123 128 118  43 129  88  89 144 203 230
220 175 167 146 137 103  65 113 153 205 205 158 164 151 156 185 180 215 232 199 182 195 159  93
167 143 168 199
150 183 127 149 188 140 151 130 178 210 190 166 178 154 154 108 160 221 208 176 218 194  40 125
221 185 176 123 133 144 145 198 181 125 156  95   0 143 223 202 129  44  98 150 100   0  80  86
 94 112 194 245 230 217 191 167 169 112 111 120 182 142 131 144 116  95  91 109  99  86 159 208
141 126 176 149  94 163 187 152 186 207 198 113 133 172 174 198 174 212 221 197 171 105  76  57
109 135 203 192
170 164  83 155 203 201 160  95 117 161 190 182 179 128 106 168 223 208 139 214 229 174  35 147
222 177 172 139 195 170 176 203 181 188 158 105 167 184 191 185  78 145 168 130  83  92 127 112
137 137 178 190 164 179 171 117 115 105  85 120 163 127 143 172 106 101 128 100 132 130  85 122
144 196 179 114 147 191 173 203 194 196 175 135 146 166 162 172 187 207 216 155 186 139  78  92
129 184 207 218
153 169 177 154 152 213 148 112  40 164 188 163 159 137 126 185 191 157 170 221 192 150 118 154
210 198 187 189 206 222 198 191 216 206 167 165 194 189 198 160 134 230 214 154 144 126 107 152
162 178 132 124 116 104  53  49   0 110 185 141  91 100 130 125  88  99 182 161 101 136 111  83
138 190 148 139 216 175 170 192 177 105 126 153  83 118 151 141 146 133 134 145 160 162 116 124
176 197 201 180
185 178 225 170 100 190 133 108 115 147 211 193 189 134 159 189 187 114 123 141 156 101 166 161
185 217 196 209 194 242 191 153 117 130 209 188 181 194 178 169 165 229 208 142 148 154 124 129
123 145  56  94 116  29  36  85 122  95 156 132  47 121 141  30  59 140 198 197 124  99  91 120
143 114 108 189 206 157 236 205 143 168 169  78 122 205 204 121  63 124 138 140 116 118  83 115
173 174 152 155
198 160 184 173 123 141  95 126 217 179 162 198 169  88 187 211 191 161 163 161 127 127 162 157
159 201 194 170 183 150  88 141 153 129 153 184 213 218 157 126 183 200 146  76 154 142  94  93
 96  86 119 120  76  78  72 109 153 173 160  97   0 129 125   0  80 153 177 180 135 154 109 117
 82  63 158 212 188 165 186 166 177 182 126 143 203 211 167 118 143 163 167 179 190 144 162 154
161 154  58 161
186 203 200 165  99  35 123 192 185 216 190 168 106 176 201 203 169 156 165 219 177 168 144 140
186 232 171 143 114  57  79 119 212 206  94  98 137  99  33  92 156  98   0  68  82   0   0  61
 45 120 180 113  65 125 159  89 126 161 193 156  38  57  89  77  55   0 114 144 124 118 133  88
102 100 147 181 163 162 210 230 186 167 171 204 218 168 157 214 193 170 192 221 227 201 212 143
200 207  98 137
197 216 203 132  95  72 177 196 141 175 167  60 104 160 165 198 218 170 144 174 189 151 137 185
221 211 180 106  74 109 122  87 102 148 203 198  94   0  76 183 187  78  70  67   7   0  89 128
164 168 122 100 150 138 177 116 106 167 217 170  90   0  63  77  71  38   0  76 113 115 138 114
126  74  68 167 195 179 226 209 184 226 218 232 163 129 182 190 205 229 178 199 206 226 170 172
209 182 135 160
219 216 120 100 167 157 183 197 206 189  80  55 182 224 176 215 209 143 153 136  95 119 198 220
214 175 160 120 106 117 188 172  86 133 191 189 101 108 149 181 161  59  87  95  29  83 102 180
204 140 107 181 197 157 134  85  98 204 229 162  92 116 104  86  84  77  22   7  72  93 117 146
 81  39 132 210 195 210 204 160 210 213 181 176 199 145 137 142 181 202 166 192 203 231 138 191
186 136 159 167
230 212 145  94 161 148 199 222 212 146 103  71 178 228 198 214 149 139 167 106  64 205 233 222
201 160 143 151 138 117 187 225 182 125 103  54  55 198 204 148  87  81  76  89  53 160 199 105
105 203 181 187 212 146  90  72 134 181 217 179  94 168 201 197 158  22  66  74   0   0 114 142
 77  90 153 202 197 173 158 193 200 198 179 187 212 185 113 120 166 222 196 149 155 166 191 190
172 192 202 207
199 191 214 163 106  48 195 218 154 137 171 134 128 180 169 149 201 212 182  39 168 220 161 154
161 118 110 187 164 185 139 186 170 107  95  75  86 139 174 167 135 118  94 115  82 153 174 141
173 212 202 191 176 116  92 102 137 178 211 207  97 117 176 195 147  96  93  71  31   0  70 157
103 101  96 162 160 107 207 193 181 195 218 191 144 140  66 134 221 232 226 199 164 134 161 190
202 200 219 180
191 166 209 203 177   0 136 197 114 126 190 208 173 182 129 145 237 200 150  80 195 187 157 190
196 156 150 171 191 205 205 183 150 178 152 126 182 131 112 143 108 118 127  61 153 146 125 179
187 214 201 172  97  94 133 186 228 215 169 212 186 120 126 132 122 134 108  32  20  42  55 116
127 189 152 104  91 159 228 201 160 173 151 176  97 129 150 171 234 225 213 249 253 213 175 139
165 209 221 199
211 165 218 203 206 128 128 173  77  97 215 222 218 168  85 146 187 181 173 119 137 158 211 234
220 153 158 132 185 230 223 206 201 212 184 190 225 200 154 106 136 165 104 103 185 118 190 177
176 202 153 123 132 200 215 212 176 187 209 221 239 148 122 147 132  89  84  50  57   0  94  93
117 150 144  84  85 182 200 196 166 124 120 133 143 138 221 196 210 249 190 240 221 198 190 192
157 180 195 190
208 171 208 187 169 151 137 101  55 168 194 221 209 113  88 171 170 203 177  54 157 202 185 180
163 161 115 140 131 162 183 184 184 163 169 180 197 162  85  69 134 120  44 145 121 106 192 162
147 156 129 152 223 225 226 154 173 184 182 217 193  98 118 205 132  40  22  93  81   0 104  99
 64  96 106  59 168 196 177 151 134  80  99  82 134 168 200 182 218 222 182 177 194 200 132 199
226 177 155 208
153 154 160 150 171 132 135 114 130 181 218 199 172  96  90 173 223 210  61 143 202 225 223 195
221 224 164 177 179 169 190 178 107 142 178 171 121  57 119 118  98  61 117 161 114 199 172  46
105 136 161 199 236 230 227 172 179 190 178 222 198  73 136 186 131  66  11  61  62  13  92  99
 96  88 130 152 200 218 149  46 119 131 128 139 140 197 163 166 218 183 162 136 116 196 179 146
181 151 138 169
229 112 100 142 179 166 169 159 138 160 203 230 175  72  59 155 196  86  83 195 204 214 226 238
219 209 196 169 145 132 113 134 149 176 195 187 108 180 199 163 144 140 161 192 169 200 138  80
110 123 116 158 173 190 203 205 153 184 202 216 191 121 110 150  97 118  31   0  38  48  96 152
 83 102 132 156 184 212 116   0 121 177 133 230 227 197 189 206 199 190 208 191 167 103 212 215
200 147  91 157
218 173  37  55 122 151 199 199 147 124 134 170 169 129  71 113  82  96 185 212 218 226 198 201
209 207 188  85  94 105 126 121 166 165 160 181 126 162 187 162 123 106 154 176 194 142   0  75
 35  84 133 133 172 194 135 151 159 134 129 161 139 114  59  70 139 139  26   0  38  54 128 200
101 115 127 108 190 117  18 106 104 167 128 226 242 211 223 242 187 194 227 206 200 143 155 180
189 172  91 140
186 186 125  47  76  40 178 211 183 155 115 104 100 183 133   0  59 100 174 217 216 205 207 166
158 185 149  63 123 164 193 163 182 139 145 202 190 145 122 136 146 200 202 186 165 100   0  95
 82 157 229 171 175 210 177 141 130 157 139  87 101  99  89 178 173  73   0   2  76 114 143 165
168 135 139 120 151  42  81 169 196 182 161 197 227 203 215 253 216 179 191 194 195 147 133 157
206 181 150 135
